#!OML:ASF H:\Dans Jumps\Project 1\Capture day 1\Session 1\subject.ASF
:FULLY-SPECIFIED
:DEGREES
596
root 0.642283 17.6019 2.879 7.7555 -0.255177 -0.622551
lowerback -2.77704 -0.332928 -0.909129
upperback 1.0389 -0.450244 1.6268
thorax 2.6445 -0.254191 2.15965
lowerneck -12.5136 0.515807 -1.64779
upperneck 17.975 1.00194 0.238749
head 7.58729 0.388 0.45299
rclavicle 4.72114e-015 1.59028e-015
rhumerus -28.6135 -23.4905 -76.1632
rradius 19.5758
rwrist 41.737
rhand -19.0212 -26.3242
rfingers 7.12502
rthumb 7.28469 -56.1788
lclavicle 4.72114e-015 1.59028e-015
lhumerus -25.0139 3.84967 88.6369
lradius 13.3322
lwrist 0.0627204
lhand -24.1618 -3.74113
lfingers 7.12502
lthumb 2.32112 26.226
rfemur -13.7659 -2.39883 19.1643
rtibia 25.5177
rfoot -17.1119 -2.9728
rtoes 5.6317
lfemur -12.6949 6.80374 -18.1891
ltibia 21.8903
lfoot -13.0636 5.94773
ltoes -4.64167
597
root 0.641453 17.6013 2.88205 7.75338 -0.251807 -0.628953
lowerback -2.77114 -0.327036 -0.906434
upperback 1.03015 -0.442511 1.63082
thorax 2.63184 -0.250157 2.16269
lowerneck -12.4977 0.514769 -1.63598
upperneck 17.9177 0.996103 0.245437
head 7.56568 0.387088 0.452316
rclavicle 4.17448e-015 -3.57812e-015
rhumerus -28.6022 -23.4113 -76.1815
rradius 19.6187
rwrist 41.629
rhand -19.0243 -26.3221
rfingers 7.12502
rthumb 7.28165 -56.1768
lclavicle 4.17448e-015 -3.57812e-015
lhumerus -25.0084 3.85831 88.6274
lradius 13.2903
lwrist -0.0243087
lhand -24.2627 -4.01459
lfingers 7.12502
lthumb 2.22366 25.9536
rfemur -13.7527 -2.40411 19.1747
rtibia 25.5188
rfoot -17.1202 -2.97827
rtoes 5.62389
lfemur -12.6997 6.80663 -18.1794
ltibia 21.9259
lfoot -13.0811 5.96052
ltoes -4.67205
598
root 0.640419 17.6006 2.88508 7.74516 -0.251574 -0.64917
lowerback -2.75981 -0.321456 -0.893474
upperback 1.0238 -0.435756 1.64058
thorax 2.61861 -0.246504 2.16584
lowerneck -12.4881 0.514203 -1.63575
upperneck 17.8672 0.992178 0.258752
head 7.54732 0.386867 0.45598
rclavicle 8.44835e-016 -3.97569e-015
rhumerus -28.5881 -23.3284 -76.2014
rradius 19.6573
rwrist 41.5263
rhand -19.0406 -26.3402
rfingers 7.12502
rthumb 7.26599 -56.1954
lclavicle 8.44835e-016 -3.97569e-015
lhumerus -25.005 3.92103 88.599
lradius 13.2253
lwrist -0.184896
lhand -24.4164 -4.49347
lfingers 7.12502
lthumb 2.07521 25.4762
rfemur -13.7325 -2.39928 19.2012
rtibia 25.519
rfoot -17.128 -2.98879
rtoes 5.62507
lfemur -12.6998 6.81467 -18.1524
ltibia 21.9666
lfoot -13.1014 5.97373
ltoes -4.70207
599
root 0.639327 17.5998 2.88847 7.73675 -0.255771 -0.669843
lowerback -2.75692 -0.316519 -0.881551
upperback 1.02474 -0.429875 1.65028
thorax 2.61768 -0.243455 2.16944
lowerneck -12.4866 0.51524 -1.64881
upperneck 17.813 0.990258 0.287795
head 7.52904 0.388195 0.467215
rclavicle 4.27387e-015 -9.54166e-015
rhumerus -28.5591 -23.2762 -76.218
rradius 19.6805
rwrist 41.4662
rhand -19.0586 -26.3678
rfingers 7.12502
rthumb 7.2486 -56.2237
lclavicle 4.27387e-015 -9.54166e-015
lhumerus -24.9983 4.02061 88.5556
lradius 13.1517
lwrist -0.400827
lhand -24.6326 -5.14726
lfingers 7.12502
lthumb 1.86641 24.8243
rfemur -13.7104 -2.39193 19.2278
rtibia 25.5183
rfoot -17.1377 -2.99664
rtoes 5.63371
lfemur -12.6989 6.82737 -18.1249
ltibia 22.0103
lfoot -13.1257 5.98667
ltoes -4.72901
600
root 0.638139 17.5988 2.89184 7.72593 -0.260272 -0.6948
lowerback -2.7509 -0.310973 -0.86666
upperback 1.02545 -0.423321 1.66114
thorax 2.6147 -0.240014 2.17261
lowerneck -12.4873 0.514529 -1.66254
upperneck 17.7649 0.986335 0.316024
head 7.51317 0.388398 0.478123
rclavicle 3.37934e-015 -1.03368e-014
rhumerus -28.5337 -23.2319 -76.2304
rradius 19.6985
rwrist 41.4196
rhand -19.0787 -26.3947
rfingers 7.12502
rthumb 7.22914 -56.2513
lclavicle 3.37934e-015 -1.03368e-014
lhumerus -24.9926 4.09489 88.5232
lradius 13.1172
lwrist -0.525943
lhand -24.7559 -5.55076
lfingers 7.12502
lthumb 1.74732 24.4218
rfemur -13.6856 -2.38185 19.2597
rtibia 25.5176
rfoot -17.1485 -3.00611
rtoes 5.64247
lfemur -12.6966 6.83913 -18.0916
ltibia 22.0561
lfoot -13.1512 6.00093
ltoes -4.76253
601
root 0.636842 17.5979 2.89523 7.71567 -0.266077 -0.712873
lowerback -2.74761 -0.306813 -0.860739
upperback 1.02759 -0.418261 1.67083
thorax 2.61487 -0.237493 2.17953
lowerneck -12.4945 0.513962 -1.67876
upperneck 17.722 0.983498 0.343217
head 7.50013 0.388809 0.489258
rclavicle 1.39149e-015 -5.96354e-015
rhumerus -28.5051 -23.1879 -76.244
rradius 19.7099
rwrist 41.3871
rhand -19.0999 -26.4359
rfingers 7.12502
rthumb 7.20867 -56.2931
lclavicle 1.39149e-015 -5.96354e-015
lhumerus -24.9805 4.15033 88.5014
lradius 13.124
lwrist -0.55792
lhand -24.8137 -5.70602
lfingers 7.12502
lthumb 1.69145 24.267
rfemur -13.662 -2.37037 19.284
rtibia 25.5188
rfoot -17.1612 -3.01399
rtoes 5.6579
lfemur -12.6939 6.85018 -18.0656
ltibia 22.1006
lfoot -13.1765 6.01466
ltoes -4.79202
602
root 0.635716 17.597 2.89849 7.71217 -0.264136 -0.724338
lowerback -2.74853 -0.301414 -0.859758
upperback 1.0257 -0.41123 1.67711
thorax 2.61317 -0.233996 2.1858
lowerneck -12.5004 0.510137 -1.67488
upperneck 17.6821 0.975353 0.353564
head 7.48812 0.386434 0.49103
rclavicle 2.98177e-015 -1.07344e-014
rhumerus -28.4879 -23.1712 -76.2428
rradius 19.7156
rwrist 41.3692
rhand -19.1108 -26.4381
rfingers 7.12502
rthumb 7.19819 -56.2957
lclavicle 2.98177e-015 -1.07344e-014
lhumerus -24.9699 4.11055 88.5166
lradius 13.1779
lwrist -0.448888
lhand -24.7936 -5.52167
lfingers 7.12502
lthumb 1.71088 24.4512
rfemur -13.6465 -2.36785 19.3015
rtibia 25.5223
rfoot -17.1754 -3.02222
rtoes 5.65802
lfemur -12.6993 6.85112 -18.0478
ltibia 22.1436
lfoot -13.1996 6.02869
ltoes -4.81993
603
root 0.634551 17.596 2.90175 7.70513 -0.259706 -0.735654
lowerback -2.74504 -0.297195 -0.860081
upperback 1.02262 -0.405738 1.68434
thorax 2.60785 -0.231261 2.19372
lowerneck -12.5073 0.505742 -1.66727
upperneck 17.6486 0.967144 0.35659
head 7.47848 0.383542 0.489816
rclavicle -6.60959e-015 2.38542e-015
rhumerus -28.4766 -23.1645 -76.2341
rradius 19.7143
rwrist 41.3667
rhand -19.1217 -26.4382
rfingers 7.12502
rthumb 7.1877 -56.2962
lclavicle -6.60959e-015 2.38542e-015
lhumerus -24.9603 4.04654 88.5442
lradius 13.2637
lwrist -0.263504
lhand -24.6577 -5.02951
lfingers 7.12502
lthumb 1.84219 24.9423
rfemur -13.628 -2.36855 19.319
rtibia 25.5292
rfoot -17.1925 -3.02948
rtoes 5.66018
lfemur -12.6989 6.84773 -18.0293
ltibia 22.1829
lfoot -13.2212 6.04282
ltoes -4.84495
604
root 0.633432 17.595 2.90505 7.69422 -0.250554 -0.745094
lowerback -2.73809 -0.294911 -0.861775
upperback 1.01953 -0.402779 1.6917
thorax 2.60071 -0.229798 2.20243
lowerneck -12.5158 0.500906 -1.6568
upperneck 17.6198 0.958879 0.354066
head 7.4707 0.380258 0.486339
rclavicle -9.19379e-015 1.78906e-014
rhumerus -28.4704 -23.1687 -76.2192
rradius 19.7078
rwrist 41.3786
rhand -19.1315 -26.4381
rfingers 7.12502
rthumb 7.17817 -56.2964
lclavicle -9.19379e-015 1.78906e-014
lhumerus -24.9516 3.97755 88.5748
lradius 13.3522
lwrist -0.0662376
lhand -24.4774 -4.44804
lfingers 7.12502
lthumb 2.01631 25.5222
rfemur -13.6055 -2.37486 19.3345
rtibia 25.5391
rfoot -17.2125 -3.03682
rtoes 5.65491
lfemur -12.6928 6.839 -18.0122
ltibia 22.2193
lfoot -13.2414 6.05646
ltoes -4.8611
605
root 0.632374 17.5939 2.90856 7.68188 -0.241935 -0.74889
lowerback -2.73096 -0.292796 -0.868438
upperback 1.01597 -0.399805 1.69703
thorax 2.59299 -0.228383 2.21183
lowerneck -12.5204 0.495688 -1.64706
upperneck 17.5907 0.949867 0.353055
head 7.46212 0.376712 0.483385
rclavicle 8.94531e-016 4.37326e-015
rhumerus -28.4703 -23.1833 -76.2001
rradius 19.6988
rwrist 41.4039
rhand -19.1384 -26.4371
rfingers 7.12502
rthumb 7.17155 -56.2956
lclavicle 8.94531e-016 4.37326e-015
lhumerus -24.9484 3.9209 88.598
lradius 13.4112
lwrist 0.0689803
lhand -24.3398 -4.02371
lfingers 7.12502
lthumb 2.14915 25.9452
rfemur -13.5829 -2.38584 19.3433
rtibia 25.5526
rfoot -17.2349 -3.04031
rtoes 5.6415
lfemur -12.6819 6.8298 -18.0016
ltibia 22.2514
lfoot -13.261 6.07046
ltoes -4.87272
606
root 0.631368 17.5928 2.91204 7.66794 -0.232592 -0.749689
lowerback -2.72025 -0.291536 -0.87732
upperback 1.01041 -0.397855 1.70177
thorax 2.58125 -0.227464 2.22185
lowerneck -12.5261 0.490465 -1.64032
upperneck 17.5678 0.941244 0.353465
head 7.45573 0.373239 0.481465
rclavicle 8.54774e-015 7.55382e-015
rhumerus -28.4752 -23.2246 -76.1696
rradius 19.6785
rwrist 41.4577
rhand -19.1476 -26.4334
rfingers 7.12502
rthumb 7.16272 -56.2922
lclavicle 8.54774e-015 7.55382e-015
lhumerus -24.9504 3.88853 88.6108
lradius 13.4393
lwrist 0.139663
lhand -24.2275 -3.745
lfingers 7.12502
lthumb 2.25768 26.2228
rfemur -13.561 -2.39845 19.3485
rtibia 25.5707
rfoot -17.2596 -3.0436
rtoes 5.6322
lfemur -12.6681 6.81801 -17.9946
ltibia 22.2802
lfoot -13.2789 6.08717
ltoes -4.88829
607
root 0.630496 17.5916 2.91588 7.6563 -0.22552 -0.742092
lowerback -2.71817 -0.290997 -0.892939
upperback 1.00942 -0.396572 1.70304
thorax 2.57914 -0.227068 2.23201
lowerneck -12.5349 0.487384 -1.63793
upperneck 17.5378 0.934912 0.361949
head 7.44749 0.371369 0.483114
rclavicle -3.32964e-015 -5.1684e-015
rhumerus -28.4715 -23.297 -76.1353
rradius 19.6461
rwrist 41.5461
rhand -19.1574 -26.4188
rfingers 7.12502
rthumb 7.15319 -56.2779
lclavicle -3.32964e-015 -5.1684e-015
lhumerus -24.9496 3.88171 88.6105
lradius 13.4345
lwrist 0.12944
lhand -24.1694 -3.67123
lfingers 7.12502
lthumb 2.31375 26.296
rfemur -13.5435 -2.41423 19.3435
rtibia 25.5936
rfoot -17.2874 -3.04279
rtoes 5.62347
lfemur -12.6537 6.80568 -17.9982
ltibia 22.3056
lfoot -13.296 6.10721
ltoes -4.9005
608
root 0.62967 17.5904 2.91959 7.64604 -0.21968 -0.735157
lowerback -2.71398 -0.2906 -0.907719
upperback 1.00613 -0.395505 1.70486
thorax 2.57347 -0.226723 2.24227
lowerneck -12.5397 0.484461 -1.6408
upperneck 17.5076 0.929071 0.37425
head 7.43844 0.36974 0.486913
rclavicle -5.96354e-016 3.97569e-015
rhumerus -28.4718 -23.378 -76.0974
rradius 19.6108
rwrist 41.6471
rhand -19.1655 -26.4015
rfingers 7.12502
rthumb 7.14535 -56.2609
lclavicle -5.96354e-016 3.97569e-015
lhumerus -24.9511 3.88164 88.6083
lradius 13.4308
lwrist 0.124085
lhand -24.0635 -3.53022
lfingers 7.12502
lthumb 2.41607 26.4358
rfemur -13.5307 -2.42741 19.3391
rtibia 25.6198
rfoot -17.3143 -3.04304
rtoes 5.61615
lfemur -12.6413 6.79381 -18.0016
ltibia 22.3306
lfoot -13.3122 6.12944
ltoes -4.91757
